<?xml version="1.0" encoding="UTF-8" standalone="no"?><svg xmlns="http://www.w3.org/2000/svg" xmlns:xlink="http://www.w3.org/1999/xlink" contentScriptType="application/ecmascript" contentStyleType="text/css" height="772px" preserveAspectRatio="none" style="width:3477px;height:772px;" version="1.1" viewBox="0 0 3477 772" width="3477px" zoomAndPan="magnify"><defs><filter height="300%" id="fkjb8mzc5a89o" width="300%" x="-1" y="-1"><feGaussianBlur result="blurOut" stdDeviation="2.0"/><feColorMatrix in="blurOut" result="blurOut2" type="matrix" values="0 0 0 0 0 0 0 0 0 0 0 0 0 0 0 0 0 0 .4 0"/><feOffset dx="4.0" dy="4.0" in="blurOut2" result="blurOut3"/><feBlend in="SourceGraphic" in2="blurOut3" mode="normal"/></filter></defs><g><text fill="#000000" font-family="sans-serif" font-size="18" lengthAdjust="spacingAndGlyphs" textLength="131" x="1664" y="16.708">State diagram</text><rect fill="#FEFECE" filter="url(#fkjb8mzc5a89o)" height="40" rx="12.5" ry="12.5" style="stroke: #A80036; stroke-width: 1.5;" width="102" x="599" y="362.9531"/><text fill="#000000" font-family="sans-serif" font-size="14" lengthAdjust="spacingAndGlyphs" textLength="92" x="604" y="387.7998">ABOUT PAGE</text><rect fill="#FEFECE" filter="url(#fkjb8mzc5a89o)" height="40" rx="12.5" ry="12.5" style="stroke: #A80036; stroke-width: 1.5;" width="147" x="355.5" y="713.9531"/><text fill="#000000" font-family="sans-serif" font-size="14" lengthAdjust="spacingAndGlyphs" textLength="137" x="360.5" y="738.7998">CHANGE LOG PAGE</text><rect fill="#FEFECE" filter="url(#fkjb8mzc5a89o)" height="40" rx="12.5" ry="12.5" style="stroke: #A80036; stroke-width: 1.5;" width="187" x="335.5" y="596.9531"/><text fill="#000000" font-family="sans-serif" font-size="14" lengthAdjust="spacingAndGlyphs" textLength="177" x="340.5" y="621.7998">DOCUMENTATIONS PAGE</text><rect fill="#FEFECE" filter="url(#fkjb8mzc5a89o)" height="40" rx="12.5" ry="12.5" style="stroke: #A80036; stroke-width: 1.5;" width="95" x="851.5" y="128.9531"/><text fill="#000000" font-family="sans-serif" font-size="14" lengthAdjust="spacingAndGlyphs" textLength="85" x="856.5" y="153.7998">HOME PAGE</text><rect fill="#FEFECE" filter="url(#fkjb8mzc5a89o)" height="40" rx="12.5" ry="12.5" style="stroke: #A80036; stroke-width: 1.5;" width="103" x="1263.5" y="245.9531"/><text fill="#000000" font-family="sans-serif" font-size="14" lengthAdjust="spacingAndGlyphs" textLength="93" x="1268.5" y="270.7998">IBELLO PAGE</text><rect fill="#FEFECE" filter="url(#fkjb8mzc5a89o)" height="40" rx="12.5" ry="12.5" style="stroke: #A80036; stroke-width: 1.5;" width="191" x="617.5" y="479.9531"/><text fill="#000000" font-family="sans-serif" font-size="14" lengthAdjust="spacingAndGlyphs" textLength="181" x="622.5" y="504.7998">INSTALLATION DOC PAGE</text><rect fill="#FEFECE" filter="url(#fkjb8mzc5a89o)" height="40" rx="12.5" ry="12.5" style="stroke: #A80036; stroke-width: 1.5;" width="122" x="397" y="362.9531"/><text fill="#000000" font-family="sans-serif" font-size="14" lengthAdjust="spacingAndGlyphs" textLength="112" x="402" y="387.7998">INTEREST PAGE</text><rect fill="#FEFECE" filter="url(#fkjb8mzc5a89o)" height="40" rx="12.5" ry="12.5" style="stroke: #A80036; stroke-width: 1.5;" width="247" x="2455.5" y="362.9531"/><text fill="#000000" font-family="sans-serif" font-size="14" lengthAdjust="spacingAndGlyphs" textLength="237" x="2460.5" y="387.7998">ORDER PAGE WHITOUT PRODUCT</text><rect fill="#FEFECE" filter="url(#fkjb8mzc5a89o)" height="40" rx="12.5" ry="12.5" style="stroke: #A80036; stroke-width: 1.5;" width="219" x="1980.5" y="362.9531"/><text fill="#000000" font-family="sans-serif" font-size="14" lengthAdjust="spacingAndGlyphs" textLength="209" x="1985.5" y="387.7998">ORDER PAGE WITH 1 HUNTER</text><rect fill="#FEFECE" filter="url(#fkjb8mzc5a89o)" height="40" rx="12.5" ry="12.5" style="stroke: #A80036; stroke-width: 1.5;" width="282" x="758" y="362.9531"/><text fill="#000000" font-family="sans-serif" font-size="14" lengthAdjust="spacingAndGlyphs" textLength="272" x="763" y="387.7998">ORDER PAGE WITH 1 MASTER HUNTER</text><rect fill="#FEFECE" filter="url(#fkjb8mzc5a89o)" height="40" rx="12.5" ry="12.5" style="stroke: #A80036; stroke-width: 1.5;" width="229" x="1234.5" y="362.9531"/><text fill="#000000" font-family="sans-serif" font-size="14" lengthAdjust="spacingAndGlyphs" textLength="219" x="1239.5" y="387.7998">ORDER PAGE WITH 1 OUTPOST</text><rect fill="#FEFECE" filter="url(#fkjb8mzc5a89o)" height="40" rx="12.5" ry="12.5" style="stroke: #A80036; stroke-width: 1.5;" width="230" x="1499" y="362.9531"/><text fill="#000000" font-family="sans-serif" font-size="14" lengthAdjust="spacingAndGlyphs" textLength="220" x="1504" y="387.7998">ORDER PAGE WITH 1 SENTINEL</text><rect fill="#FEFECE" filter="url(#fkjb8mzc5a89o)" height="40" rx="12.5" ry="12.5" style="stroke: #A80036; stroke-width: 1.5;" width="321" x="1359.5" y="596.9531"/><text fill="#000000" font-family="sans-serif" font-size="14" lengthAdjust="spacingAndGlyphs" textLength="311" x="1364.5" y="621.7998">QUOTATION PAGE WITH AUTOMATED TESTS</text><rect fill="#FEFECE" filter="url(#fkjb8mzc5a89o)" height="40" rx="12.5" ry="12.5" style="stroke: #A80036; stroke-width: 1.5;" width="287" x="1715.5" y="596.9531"/><text fill="#000000" font-family="sans-serif" font-size="14" lengthAdjust="spacingAndGlyphs" textLength="277" x="1720.5" y="621.7998">QUOTATION PAGE WITH CONSULTANCY</text><rect fill="#FEFECE" filter="url(#fkjb8mzc5a89o)" height="40" rx="12.5" ry="12.5" style="stroke: #A80036; stroke-width: 1.5;" width="359" x="2037.5" y="596.9531"/><text fill="#000000" font-family="sans-serif" font-size="14" lengthAdjust="spacingAndGlyphs" textLength="349" x="2042.5" y="621.7998">QUOTATION PAGE WITH DEV AND TEST TRAINING</text><rect fill="#FEFECE" filter="url(#fkjb8mzc5a89o)" height="40" rx="12.5" ry="12.5" style="stroke: #A80036; stroke-width: 1.5;" width="368" x="2432" y="596.9531"/><text fill="#000000" font-family="sans-serif" font-size="14" lengthAdjust="spacingAndGlyphs" textLength="358" x="2437" y="621.7998">QUOTATION PAGE WITH ONLINE AUTOMATED TEST</text><rect fill="#FEFECE" filter="url(#fkjb8mzc5a89o)" height="40" rx="12.5" ry="12.5" style="stroke: #A80036; stroke-width: 1.5;" width="316" x="2835" y="596.9531"/><text fill="#000000" font-family="sans-serif" font-size="14" lengthAdjust="spacingAndGlyphs" textLength="306" x="2840" y="621.7998">QUOTATION PAGE WITH TEST FRAMEWORK</text><rect fill="#FEFECE" filter="url(#fkjb8mzc5a89o)" height="40" rx="12.5" ry="12.5" style="stroke: #A80036; stroke-width: 1.5;" width="272" x="3186" y="596.9531"/><text fill="#000000" font-family="sans-serif" font-size="14" lengthAdjust="spacingAndGlyphs" textLength="262" x="3191" y="621.7998">QUOTATION PAGE WITHOUT SERVICE</text><rect fill="#FEFECE" filter="url(#fkjb8mzc5a89o)" height="40" rx="12.5" ry="12.5" style="stroke: #A80036; stroke-width: 1.5;" width="123" x="2208.5" y="479.9531"/><text fill="#000000" font-family="sans-serif" font-size="14" lengthAdjust="spacingAndGlyphs" textLength="113" x="2213.5" y="504.7998">SERVICES PAGE</text><rect fill="#FEFECE" filter="url(#fkjb8mzc5a89o)" height="40" rx="12.5" ry="12.5" style="stroke: #A80036; stroke-width: 1.5;" width="119" x="1075.5" y="362.9531"/><text fill="#000000" font-family="sans-serif" font-size="14" lengthAdjust="spacingAndGlyphs" textLength="109" x="1080.5" y="387.7998">SUPPORT PAGE</text><rect fill="#FEFECE" filter="url(#fkjb8mzc5a89o)" height="40" rx="12.5" ry="12.5" style="stroke: #A80036; stroke-width: 1.5;" width="77" x="860.5" y="27.9531"/><text fill="#000000" font-family="sans-serif" font-size="14" lengthAdjust="spacingAndGlyphs" textLength="67" x="865.5" y="52.7998">TEST INIT</text><!--MD5=[b8c42bcf4e7f2aee6b820859877c5b4b]
link CHANGE_LOG_PAGE to HOME_PAGE--><path d="M355.319,728.0638 C234.127,717.9773 6,689.49 6,617.9531 C6,264.9531 6,264.9531 6,264.9531 C6,179.7291 654.059,156.2511 846.032,151.1651 " fill="none" id="CHANGE_LOG_PAGE-to-HOME_PAGE" style="stroke: #A80036; stroke-width: 1.0;"/><polygon fill="#A80036" points="851.304,151.0271,842.202,147.2651,846.3057,151.1585,842.4122,155.2623,851.304,151.0271" style="stroke: #A80036; stroke-width: 1.0;"/><text fill="#000000" font-family="sans-serif" font-size="13" lengthAdjust="spacingAndGlyphs" textLength="73" x="7" y="446.02">logo button</text><!--MD5=[c818f9872d12a624d5f9b4e88d135f0a]
link DOCUMENTATIONS_PAGE to CHANGE_LOG_PAGE--><path d="M429,637.2011 C429,656.7714 429,687.1601 429,708.4401 " fill="none" id="DOCUMENTATIONS_PAGE-to-CHANGE_LOG_PAGE" style="stroke: #A80036; stroke-width: 1.0;"/><polygon fill="#A80036" points="429,713.6419,433,704.6419,429,708.6419,425,704.6419,429,713.6419" style="stroke: #A80036; stroke-width: 1.0;"/><text fill="#000000" font-family="sans-serif" font-size="13" lengthAdjust="spacingAndGlyphs" textLength="149" x="430" y="680.02">read change log button</text><!--MD5=[72f2cfb667919726a0a49d17a35fafaf]
link HOME_PAGE to ABOUT_PAGE--><path d="M851.355,152.5221 C761.063,160.2641 566.524,191.3301 482,315.9531 C477.759,322.2061 477.467,326.9091 482,332.9531 C495.603,351.0911 550.447,364.7341 593.82,372.9591 " fill="none" id="HOME_PAGE-to-ABOUT_PAGE" style="stroke: #A80036; stroke-width: 1.0;"/><polygon fill="#A80036" points="598.781,373.8861,590.6676,368.3029,593.8659,372.9688,589.1999,376.1671,598.781,373.8861" style="stroke: #A80036; stroke-width: 1.0;"/><text fill="#000000" font-family="sans-serif" font-size="13" lengthAdjust="spacingAndGlyphs" textLength="182" x="553" y="270.52">navbar about, details button</text><!--MD5=[f8f49bc6029af5c12e11a2cdd2046a5a]
link HOME_PAGE to DOCUMENTATIONS_PAGE--><path d="M851.355,151.7911 C679.84,159.0301 104,188.9921 104,264.9531 C104,264.9531 104,264.9531 104,500.9531 C104,549.5361 234.702,582.7491 330.334,600.5471 " fill="none" id="HOME_PAGE-to-DOCUMENTATIONS_PAGE" style="stroke: #A80036; stroke-width: 1.0;"/><polygon fill="#A80036" points="335.433,601.4881,327.3081,595.9217,330.516,600.581,325.8567,603.7889,335.433,601.4881" style="stroke: #A80036; stroke-width: 1.0;"/><text fill="#000000" font-family="sans-serif" font-size="13" lengthAdjust="spacingAndGlyphs" textLength="256" x="105" y="387.52">navbar support, documentations button</text><!--MD5=[06b78a588132116cab8cfe4a4b5c128d]
link HOME_PAGE to IBELLO_PAGE--><path d="M891.648,169.1091 C887.409,183.7351 884.867,203.4431 896,215.9531 C907.907,229.3331 1146.33,250.8811 1258.1,260.2981 " fill="none" id="HOME_PAGE-to-IBELLO_PAGE" style="stroke: #A80036; stroke-width: 1.0;"/><polygon fill="#A80036" points="1263.32,260.7371,1254.6959,255.9806,1258.3384,260.3087,1254.0103,263.9512,1263.32,260.7371" style="stroke: #A80036; stroke-width: 1.0;"/><text fill="#000000" font-family="sans-serif" font-size="13" lengthAdjust="spacingAndGlyphs" textLength="222" x="897" y="212.02">navbar product, learn more button</text><!--MD5=[06b78a588132116cab8cfe4a4b5c128d]
link HOME_PAGE to IBELLO_PAGE--><path d="M946.821,157.1291 C992.961,164.8051 1064.39,178.6801 1124,198.9531 C1140.75,204.6501 1143.53,209.4941 1160,215.9531 C1192.04,228.5161 1228.73,240.2291 1258.36,249.0511 " fill="none" id="HOME_PAGE-to-IBELLO_PAGE-1" style="stroke: #A80036; stroke-width: 1.0;"/><polygon fill="#A80036" points="1263.43,250.5531,1255.947,244.1496,1258.6382,249.1253,1253.6625,251.8165,1263.43,250.5531" style="stroke: #A80036; stroke-width: 1.0;"/><text fill="#000000" font-family="sans-serif" font-size="13" lengthAdjust="spacingAndGlyphs" textLength="123" x="1161" y="212.02">header our product</text><!--MD5=[4779d3c58802f9052ed3e7cc5a5f0504]
link IBELLO_PAGE to HOME_PAGE--><path d="M1312.77,245.9001 C1309.92,230.7191 1303.49,210.2071 1289,198.9531 C1237.56,159.0061 1045.98,151.3881 951.866,150.0981 " fill="none" id="IBELLO_PAGE-to-HOME_PAGE" style="stroke: #A80036; stroke-width: 1.0;"/><polygon fill="#A80036" points="946.634,150.0311,955.5818,154.1465,951.6336,150.0954,955.6847,146.1472,946.634,150.0311" style="stroke: #A80036; stroke-width: 1.0;"/><text fill="#000000" font-family="sans-serif" font-size="13" lengthAdjust="spacingAndGlyphs" textLength="73" x="1304" y="212.02">logo button</text><!--MD5=[b16faf295aa5e77ec0263a02b6ba28c8]
link HOME_PAGE to INTEREST_PAGE--><path d="M851.476,150.2241 C724.78,152.0551 383.882,164.5931 315,245.9531 C277.641,290.0801 351.676,335.1281 406.478,360.7081 " fill="none" id="HOME_PAGE-to-INTEREST_PAGE" style="stroke: #A80036; stroke-width: 1.0;"/><polygon fill="#A80036" points="411.051,362.8191,404.556,355.4154,406.5113,360.7236,401.2031,362.6788,411.051,362.8191" style="stroke: #A80036; stroke-width: 1.0;"/><text fill="#000000" font-family="sans-serif" font-size="13" lengthAdjust="spacingAndGlyphs" textLength="182" x="316" y="270.52">navbar product, try it button</text><!--MD5=[dad794bd955b7a6191a6046dd12b3ce3]
link HOME_PAGE to SERVICES_PAGE--><path d="M946.644,149.8421 C1180.68,149.7401 2209.49,154.5871 2514,245.9531 C2614.85,276.2131 2667.03,271.9541 2720,362.9531 C2728.94,378.3171 2731.18,389.1331 2720,402.9531 C2672.58,461.5611 2450.45,485.9331 2337.02,494.6931 " fill="none" id="HOME_PAGE-to-SERVICES_PAGE" style="stroke: #A80036; stroke-width: 1.0;"/><polygon fill="#A80036" points="2331.7,495.0981,2340.9723,498.4184,2336.6862,494.7267,2340.378,490.4405,2331.7,495.0981" style="stroke: #A80036; stroke-width: 1.0;"/><text fill="#000000" font-family="sans-serif" font-size="13" lengthAdjust="spacingAndGlyphs" textLength="127" x="2701" y="329.02">header our services</text><!--MD5=[dad794bd955b7a6191a6046dd12b3ce3]
link HOME_PAGE to SERVICES_PAGE--><path d="M946.711,150.7301 C1162.79,154.3801 2051.09,170.8401 2328,198.9531 C2452.23,211.5651 2483.43,217.4181 2605,245.9531 C2709.85,270.5651 2772.78,229.4931 2837,315.9531 C2892.11,390.1411 2764.85,418.3571 2678,449.9531 C2616.91,472.1781 2436.04,487.5921 2336.88,494.6291 " fill="none" id="HOME_PAGE-to-SERVICES_PAGE-1" style="stroke: #A80036; stroke-width: 1.0;"/><polygon fill="#A80036" points="2331.64,494.9981,2340.9027,498.345,2336.6272,494.641,2340.3313,490.3655,2331.64,494.9981" style="stroke: #A80036; stroke-width: 1.0;"/><text fill="#000000" font-family="sans-serif" font-size="13" lengthAdjust="spacingAndGlyphs" textLength="237" x="2848" y="329.02">navbar services, work with us button</text><!--MD5=[32120a82014fb34c6e5bf1f95a735e5f]
link HOME_PAGE to SUPPORT_PAGE--><path d="M890.199,169.0671 C886.577,177.9521 882.809,188.7811 881,198.9531 C872.453,247.0081 873.874,303.6361 903,332.9531 C952.146,382.4211 988.884,348.0311 1057,362.9531 C1061.4,363.9171 1065.93,364.9401 1070.49,365.9921 " fill="none" id="HOME_PAGE-to-SUPPORT_PAGE" style="stroke: #A80036; stroke-width: 1.0;"/><polygon fill="#A80036" points="1075.45,367.1441,1067.5854,361.2156,1070.5791,366.0153,1065.7793,369.009,1075.45,367.1441" style="stroke: #A80036; stroke-width: 1.0;"/><text fill="#000000" font-family="sans-serif" font-size="13" lengthAdjust="spacingAndGlyphs" textLength="237" x="881" y="270.52">navbar support, more options button</text><!--MD5=[8351fa3cc6ba7a8d542f8e7ea942e4af]
link IBELLO_PAGE to ABOUT_PAGE--><path d="M1263.46,271.2951 C1129.65,282.6041 780.756,312.3431 769,315.9531 C737.109,325.7461 704.193,344.8171 681.086,359.9511 " fill="none" id="IBELLO_PAGE-to-ABOUT_PAGE" style="stroke: #A80036; stroke-width: 1.0;"/><polygon fill="#A80036" points="676.888,362.7281,686.6014,361.1002,681.0586,359.9701,682.1886,354.4273,676.888,362.7281" style="stroke: #A80036; stroke-width: 1.0;"/><text fill="#000000" font-family="sans-serif" font-size="13" lengthAdjust="spacingAndGlyphs" textLength="132" x="770" y="329.02">navbar about button</text><!--MD5=[40eb609038141a07911d6d2cd8433187]
link IBELLO_PAGE to INTEREST_PAGE--><path d="M1263.2,271.7571 C1217.21,275.9101 1148.17,281.8721 1088,285.9531 C1023.95,290.2981 568.147,286.7031 511,315.9531 C493.099,325.1161 479.191,343.3411 470.123,358.3231 " fill="none" id="IBELLO_PAGE-to-INTEREST_PAGE" style="stroke: #A80036; stroke-width: 1.0;"/><polygon fill="#A80036" points="467.465,362.8541,475.469,357.1152,469.9949,358.5414,468.5687,353.0673,467.465,362.8541" style="stroke: #A80036; stroke-width: 1.0;"/><text fill="#000000" font-family="sans-serif" font-size="13" lengthAdjust="spacingAndGlyphs" textLength="207" x="512" y="329.02">header details, download button</text><!--MD5=[d8b6f0ec8c8f9998ef9896903f7a179b]
link IBELLO_PAGE to ORDER_PAGE_WHITOUT_PRODUCT--><path d="M1366.63,266.2881 C1513.07,265.0971 1943.28,266.4211 2296,315.9531 C2368.99,326.2021 2450.83,346.2471 2507.66,361.5701 " fill="none" id="IBELLO_PAGE-to-ORDER_PAGE_WHITOUT_PRODUCT" style="stroke: #A80036; stroke-width: 1.0;"/><polygon fill="#A80036" points="2512.73,362.9441,2505.0969,356.7203,2507.9056,361.6306,2502.9953,364.4393,2512.73,362.9441" style="stroke: #A80036; stroke-width: 1.0;"/><text fill="#000000" font-family="sans-serif" font-size="13" lengthAdjust="spacingAndGlyphs" textLength="111" x="2384" y="329.02">order now button</text><!--MD5=[4a6bff069c2e2ea8e34270ff35a2cae1]
link IBELLO_PAGE to ORDER_PAGE_WITH_1_HUNTER--><path d="M1366.73,269.3841 C1459.24,274.2931 1658.87,287.4461 1825,315.9531 C1891.89,327.4301 1966.82,346.7051 2019.89,361.4711 " fill="none" id="IBELLO_PAGE-to-ORDER_PAGE_WITH_1_HUNTER" style="stroke: #A80036; stroke-width: 1.0;"/><polygon fill="#A80036" points="2024.96,362.8851,2017.3651,356.6147,2020.1437,361.5421,2015.2163,364.3207,2024.96,362.8851" style="stroke: #A80036; stroke-width: 1.0;"/><text fill="#000000" font-family="sans-serif" font-size="13" lengthAdjust="spacingAndGlyphs" textLength="126" x="1907" y="329.02">order hunter button</text><!--MD5=[fd4e98dd3af57f9df042b1891e4861dd]
link IBELLO_PAGE to ORDER_PAGE_WITH_1_MASTER_HUNTER--><path d="M1263.45,271.9611 C1160.08,282.2011 936.171,305.4501 923,315.9531 C910.35,326.0411 904.366,343.4051 901.536,357.7911 " fill="none" id="IBELLO_PAGE-to-ORDER_PAGE_WITH_1_MASTER_HUNTER" style="stroke: #A80036; stroke-width: 1.0;"/><polygon fill="#A80036" points="900.629,362.9371,906.1292,354.7672,901.4961,358.0129,898.2505,353.3798,900.629,362.9371" style="stroke: #A80036; stroke-width: 1.0;"/><text fill="#000000" font-family="sans-serif" font-size="13" lengthAdjust="spacingAndGlyphs" textLength="176" x="924" y="329.02">order master hunter button</text><!--MD5=[5ad5ea5b449637ee26f24877bc3a6c2c]
link IBELLO_PAGE to ORDER_PAGE_WITH_1_OUTPOST--><path d="M1366.6,276.6111 C1388.82,283.6041 1412.72,295.5691 1426,315.9531 C1437.35,333.3701 1421.85,348.7601 1401.86,360.2881 " fill="none" id="IBELLO_PAGE-to-ORDER_PAGE_WITH_1_OUTPOST" style="stroke: #A80036; stroke-width: 1.0;"/><polygon fill="#A80036" points="1397.25,362.8371,1407.0624,361.9902,1401.6275,360.4211,1403.1967,354.9862,1397.25,362.8371" style="stroke: #A80036; stroke-width: 1.0;"/><text fill="#000000" font-family="sans-serif" font-size="13" lengthAdjust="spacingAndGlyphs" textLength="133" x="1431" y="329.02">order outpost button</text><!--MD5=[1ccce37cef35c5f879122a2115cc5c38]
link IBELLO_PAGE to ORDER_PAGE_WITH_1_SENTINEL--><path d="M1366.54,271.8171 C1431.93,278.8151 1540.15,293.4171 1573,315.9531 C1587.79,326.1001 1598.28,343.5121 1604.94,357.9041 " fill="none" id="IBELLO_PAGE-to-ORDER_PAGE_WITH_1_SENTINEL" style="stroke: #A80036; stroke-width: 1.0;"/><polygon fill="#A80036" points="1607.06,362.6551,1607.058,352.8063,1605.0284,358.0865,1599.7482,356.0569,1607.06,362.6551" style="stroke: #A80036; stroke-width: 1.0;"/><text fill="#000000" font-family="sans-serif" font-size="13" lengthAdjust="spacingAndGlyphs" textLength="134" x="1591" y="329.02">order sentinel button</text><!--MD5=[2439d89fa192a4b9fb14e63f240c9e91]
link IBELLO_PAGE to SERVICES_PAGE--><path d="M1366.52,266.9891 C1486.05,267.8181 1791.18,274.2291 2042,315.9531 C2121.44,329.1681 2157.03,309.2001 2217,362.9531 C2249.64,392.2131 2262.37,444.0311 2267.19,474.5581 " fill="none" id="IBELLO_PAGE-to-SERVICES_PAGE" style="stroke: #A80036; stroke-width: 1.0;"/><polygon fill="#A80036" points="2267.95,479.6341,2270.5707,470.1403,2267.2083,474.6894,2262.6592,471.3271,2267.95,479.6341" style="stroke: #A80036; stroke-width: 1.0;"/><text fill="#000000" font-family="sans-serif" font-size="13" lengthAdjust="spacingAndGlyphs" textLength="148" x="2247" y="387.52">navbar services button</text><!--MD5=[5e94cb434b9cd303b070acfd61ed6969]
link SERVICES_PAGE to IBELLO_PAGE--><path d="M2208.48,497.2961 C2117.43,492.4301 1943.9,473.7471 1817,402.9531 C1770.33,376.9171 1781.82,339.8061 1734,315.9531 C1671.79,284.9221 1471.4,272.9681 1372,268.8611 " fill="none" id="SERVICES_PAGE-to-IBELLO_PAGE" style="stroke: #A80036; stroke-width: 1.0;"/><polygon fill="#A80036" points="1366.77,268.6491,1375.6028,273.0059,1371.766,268.8491,1375.9228,265.0123,1366.77,268.6491" style="stroke: #A80036; stroke-width: 1.0;"/><text fill="#000000" font-family="sans-serif" font-size="13" lengthAdjust="spacingAndGlyphs" textLength="144" x="1818" y="387.52">navbar product button</text><!--MD5=[b2f7d87db9726743bf8f7bcaa3f02a08]
link IBELLO_PAGE to SUPPORT_PAGE--><path d="M1263.32,272.3541 C1210.04,279.1131 1132.25,292.7211 1114,315.9531 C1104.39,328.1871 1109.86,344.9121 1117.62,358.4641 " fill="none" id="IBELLO_PAGE-to-SUPPORT_PAGE" style="stroke: #A80036; stroke-width: 1.0;"/><polygon fill="#A80036" points="1120.32,362.9271,1119.0908,353.1553,1117.7349,358.6472,1112.243,357.2914,1120.32,362.9271" style="stroke: #A80036; stroke-width: 1.0;"/><text fill="#000000" font-family="sans-serif" font-size="13" lengthAdjust="spacingAndGlyphs" textLength="144" x="1115" y="329.02">navbar support button</text><!--MD5=[1ca56f0c75662e09ff458ab09c6f4cde]
link SUPPORT_PAGE to IBELLO_PAGE--><path d="M1194.63,366.8851 C1217.74,359.1811 1243.5,348.1481 1264,332.9531 C1279.39,321.5421 1292.5,304.2961 1301.57,290.2951 " fill="none" id="SUPPORT_PAGE-to-IBELLO_PAGE" style="stroke: #A80036; stroke-width: 1.0;"/><polygon fill="#A80036" points="1304.25,286.0641,1296.0561,291.5286,1301.5754,290.2887,1302.8154,295.8079,1304.25,286.0641" style="stroke: #A80036; stroke-width: 1.0;"/><text fill="#000000" font-family="sans-serif" font-size="13" lengthAdjust="spacingAndGlyphs" textLength="120" x="1282" y="329.02">our product button</text><!--MD5=[70892aa24708fb895d96b2ac3a397b43]
link INSTALLATION_DOC_PAGE to DOCUMENTATIONS_PAGE--><path d="M665.784,520.0721 C614.8,540.7171 533.813,573.5111 481.029,594.8851 " fill="none" id="INSTALLATION_DOC_PAGE-to-DOCUMENTATIONS_PAGE" style="stroke: #A80036; stroke-width: 1.0;"/><polygon fill="#A80036" points="476.329,596.7881,486.1724,597.1167,480.9633,594.911,483.169,589.7019,476.329,596.7881" style="stroke: #A80036; stroke-width: 1.0;"/><text fill="#000000" font-family="sans-serif" font-size="13" lengthAdjust="spacingAndGlyphs" textLength="188" x="590" y="563.02">more documentations button</text><!--MD5=[bb8ce261498cdd8023d289753a54f601]
link INTEREST_PAGE to DOCUMENTATIONS_PAGE--><path d="M447.362,403.0891 C437.52,421.9671 423.595,451.9791 418,479.9531 C410.259,518.6581 417.255,564.5951 423.084,591.9521 " fill="none" id="INTEREST_PAGE-to-DOCUMENTATIONS_PAGE" style="stroke: #A80036; stroke-width: 1.0;"/><polygon fill="#A80036" points="424.155,596.8381,426.1364,587.1906,423.085,591.954,418.3217,588.9026,424.155,596.8381" style="stroke: #A80036; stroke-width: 1.0;"/><text fill="#000000" font-family="sans-serif" font-size="13" lengthAdjust="spacingAndGlyphs" textLength="180" x="419" y="504.52">interest page, read it button</text><!--MD5=[e4c48a3dbf3ee79337e5ca2d22bdefcf]
link INTEREST_PAGE to INSTALLATION_DOC_PAGE--><path d="M450.815,403.1921 C446.764,417.6701 444.393,437.1421 455,449.9531 C460.262,456.3081 542.087,471.1471 612.194,482.8411 " fill="none" id="INTEREST_PAGE-to-INSTALLATION_DOC_PAGE" style="stroke: #A80036; stroke-width: 1.0;"/><polygon fill="#A80036" points="617.221,483.6771,609.0003,478.2531,612.2889,482.8558,607.6862,486.1445,617.221,483.6771" style="stroke: #A80036; stroke-width: 1.0;"/><text fill="#000000" font-family="sans-serif" font-size="13" lengthAdjust="spacingAndGlyphs" textLength="247" x="456" y="446.02">interest page, installation guide button</text><!--MD5=[11c5cbe26c8802ab8118c2c15cb0e5c1]
link ORDER_PAGE_WHITOUT_PRODUCT to HOME_PAGE--><path d="M2563.33,362.7471 C2549.48,347.2591 2527.83,326.3941 2504,315.9531 C2046.4,115.4501 1882.99,249.9611 1386,198.9531 C1228.11,182.7491 1041.37,164.1061 951.932,155.2091 " fill="none" id="ORDER_PAGE_WHITOUT_PRODUCT-to-HOME_PAGE" style="stroke: #A80036; stroke-width: 1.0;"/><polygon fill="#A80036" points="946.703,154.6891,955.2635,159.5592,951.6785,155.1834,956.0543,151.5984,946.703,154.6891" style="stroke: #A80036; stroke-width: 1.0;"/><text fill="#000000" font-family="sans-serif" font-size="13" lengthAdjust="spacingAndGlyphs" textLength="73" x="2432" y="270.52">logo button</text><!--MD5=[62a2caf82fa6b56e94a90797d9905581]
link SERVICES_PAGE to QUOTATION_PAGE_WITH_AUTOMATED_TESTS--><path d="M2208.36,501.3981 C2104.43,503.2451 1888.22,511.8171 1710,549.9531 C1661.14,560.4071 1607.55,579.7921 1569.78,594.8591 " fill="none" id="SERVICES_PAGE-to-QUOTATION_PAGE_WITH_AUTOMATED_TESTS" style="stroke: #A80036; stroke-width: 1.0;"/><polygon fill="#A80036" points="1564.78,596.8611,1574.6229,597.2043,1569.417,594.9909,1571.6305,589.7851,1564.78,596.8611" style="stroke: #A80036; stroke-width: 1.0;"/><text fill="#000000" font-family="sans-serif" font-size="13" lengthAdjust="spacingAndGlyphs" textLength="247" x="1711" y="563.02">request quotation for automated tests</text><!--MD5=[0a6aa68f9e5c70d390c6bbbfd2a57031]
link SERVICES_PAGE to QUOTATION_PAGE_WITH_CONSULTANCY--><path d="M2208.33,508.9821 C2155.92,516.6981 2079.04,530.1311 2014,549.9531 C1975.09,561.8111 1932.72,580.2611 1902.13,594.6421 " fill="none" id="SERVICES_PAGE-to-QUOTATION_PAGE_WITH_CONSULTANCY" style="stroke: #A80036; stroke-width: 1.0;"/><polygon fill="#A80036" points="1897.32,596.9141,1907.1659,596.6743,1901.8383,594.7728,1903.7398,589.4451,1897.32,596.9141" style="stroke: #A80036; stroke-width: 1.0;"/><text fill="#000000" font-family="sans-serif" font-size="13" lengthAdjust="spacingAndGlyphs" textLength="217" x="2015" y="563.02">request quotation for consultancy</text><!--MD5=[e8bbc9d0676b12d2bef984a7cbe25c28]
link SERVICES_PAGE to QUOTATION_PAGE_WITH_DEV_AND_TEST_TRAINING--><path d="M2261.13,520.2011 C2252.03,539.9371 2237.87,570.6761 2228.05,591.9791 " fill="none" id="SERVICES_PAGE-to-QUOTATION_PAGE_WITH_DEV_AND_TEST_TRAINING" style="stroke: #A80036; stroke-width: 1.0;"/><polygon fill="#A80036" points="2225.9,596.6421,2233.2988,590.1416,2227.9921,592.1009,2226.0328,586.7942,2225.9,596.6421" style="stroke: #A80036; stroke-width: 1.0;"/><text fill="#000000" font-family="sans-serif" font-size="13" lengthAdjust="spacingAndGlyphs" textLength="273" x="2248" y="563.02">request quotation for dev and test training</text><!--MD5=[6c3e88df9d704bd02aa4034778b9d9d3]
link SERVICES_PAGE to QUOTATION_PAGE_WITH_ONLINE_AUTOMATED_TEST--><path d="M2331.51,504.4611 C2385.77,509.4081 2465.95,521.3161 2530,549.9531 C2553.44,560.4341 2576.32,578.4901 2592.59,593.0691 " fill="none" id="SERVICES_PAGE-to-QUOTATION_PAGE_WITH_ONLINE_AUTOMATED_TEST" style="stroke: #A80036; stroke-width: 1.0;"/><polygon fill="#A80036" points="2596.57,596.6951,2592.5926,587.6851,2592.8671,593.3353,2587.2169,593.6098,2596.57,596.6951" style="stroke: #A80036; stroke-width: 1.0;"/><text fill="#000000" font-family="sans-serif" font-size="13" lengthAdjust="spacingAndGlyphs" textLength="282" x="2560" y="563.02">request quotation for online automated test</text><!--MD5=[87c46dc58a1ac98545ea112919244561]
link SERVICES_PAGE to QUOTATION_PAGE_WITH_TEST_FRAMEWORK--><path d="M2331.53,503.4191 C2460.3,509.0231 2754.27,524.2601 2851,549.9531 C2888.38,559.8811 2928.07,579.1591 2955.96,594.3271 " fill="none" id="SERVICES_PAGE-to-QUOTATION_PAGE_WITH_TEST_FRAMEWORK" style="stroke: #A80036; stroke-width: 1.0;"/><polygon fill="#A80036" points="2960.68,596.9161,2954.7072,589.0851,2956.2945,594.5147,2950.8649,596.1019,2960.68,596.9161" style="stroke: #A80036; stroke-width: 1.0;"/><text fill="#000000" font-family="sans-serif" font-size="13" lengthAdjust="spacingAndGlyphs" textLength="239" x="2897" y="563.02">request quotation for test framework</text><!--MD5=[766544e702c219465e6bed9a8e8a9efa]
link SERVICES_PAGE to QUOTATION_PAGE_WITHOUT_SERVICE--><path d="M2331.6,502.0001 C2504.07,505.3131 2989.29,517.3451 3145,549.9531 C3191.39,559.6671 3241.81,579.4451 3276.92,594.8301 " fill="none" id="SERVICES_PAGE-to-QUOTATION_PAGE_WITHOUT_SERVICE" style="stroke: #A80036; stroke-width: 1.0;"/><polygon fill="#A80036" points="3281.56,596.8741,3274.9353,589.5863,3276.984,594.8591,3271.7112,596.9079,3281.56,596.8741" style="stroke: #A80036; stroke-width: 1.0;"/><text fill="#000000" font-family="sans-serif" font-size="13" lengthAdjust="spacingAndGlyphs" textLength="160" x="3205" y="563.02">request quotation button</text><!--MD5=[3a9063df608702e3bada50785a3ac622]
link SUPPORT_PAGE to CHANGE_LOG_PAGE--><path d="M1148.43,403.0981 C1166.47,431.4101 1193.39,484.8681 1167,519.9531 C1086.78,626.6051 680.877,696.6887 507.593,722.1918 " fill="none" id="SUPPORT_PAGE-to-CHANGE_LOG_PAGE" style="stroke: #A80036; stroke-width: 1.0;"/><polygon fill="#A80036" points="502.534,722.9333,512.0185,725.5874,507.4813,722.209,510.8596,717.6718,502.534,722.9333" style="stroke: #A80036; stroke-width: 1.0;"/><text fill="#000000" font-family="sans-serif" font-size="13" lengthAdjust="spacingAndGlyphs" textLength="116" x="1136" y="563.02">change log button</text><!--MD5=[94678ef1e67df990a98232c380fff7bb]
link SUPPORT_PAGE to DOCUMENTATIONS_PAGE--><path d="M1107.17,402.9621 C1050.02,440.9821 914.086,526.2331 787,566.9531 C701.969,594.1981 600.823,606.2941 527.768,611.6651 " fill="none" id="SUPPORT_PAGE-to-DOCUMENTATIONS_PAGE" style="stroke: #A80036; stroke-width: 1.0;"/><polygon fill="#A80036" points="522.557,612.0401,531.8207,615.3844,527.5441,611.6816,531.247,607.405,522.557,612.0401" style="stroke: #A80036; stroke-width: 1.0;"/><text fill="#000000" font-family="sans-serif" font-size="13" lengthAdjust="spacingAndGlyphs" textLength="180" x="978" y="504.52">support page, read it button</text><!--MD5=[49e2958818546717760404496701fab1]
link SUPPORT_PAGE to INSTALLATION_DOC_PAGE--><path d="M1075.14,399.4531 C1069.03,400.7571 1062.91,401.9551 1057,402.9531 C988.101,414.5851 801.127,392.7171 744,432.9531 C730.265,442.6271 722.44,460.0061 718.088,474.5031 " fill="none" id="SUPPORT_PAGE-to-INSTALLATION_DOC_PAGE" style="stroke: #A80036; stroke-width: 1.0;"/><polygon fill="#A80036" points="716.638,479.6941,722.9126,472.1027,717.9837,474.8786,715.2078,469.9497,716.638,479.6941" style="stroke: #A80036; stroke-width: 1.0;"/><text fill="#000000" font-family="sans-serif" font-size="13" lengthAdjust="spacingAndGlyphs" textLength="247" x="745" y="446.02">support page, installation guide button</text><!--MD5=[1df2c45cb3df777544b3d7ddd84fc833]
link SUPPORT_PAGE to SERVICES_PAGE--><path d="M1194.83,398.7581 C1202.27,400.3191 1209.79,401.7671 1217,402.9531 C1586.58,463.7551 2035.93,488.6191 2203.13,496.2081 " fill="none" id="SUPPORT_PAGE-to-SERVICES_PAGE" style="stroke: #A80036; stroke-width: 1.0;"/><polygon fill="#A80036" points="2208.48,496.4491,2199.6597,492.0671,2203.4846,496.2349,2199.3169,500.0598,2208.48,496.4491" style="stroke: #A80036; stroke-width: 1.0;"/><text fill="#000000" font-family="sans-serif" font-size="13" lengthAdjust="spacingAndGlyphs" textLength="78" x="1564" y="446.02">our services</text><!--MD5=[e22f14cccf4ca99aec610e0675b8f763]
link TEST_INIT to HOME_PAGE--><path d="M899,68.0411 C899,83.9281 899,106.6391 899,123.7921 " fill="none" id="TEST_INIT-to-HOME_PAGE" style="stroke: #A80036; stroke-width: 1.0;"/><polygon fill="#A80036" points="899,128.9231,903,119.9231,899,123.9231,895,119.9231,899,128.9231" style="stroke: #A80036; stroke-width: 1.0;"/><!--MD5=[063b6581d4e3042ef172b109f7aa0513]
@startuml
hide empty description
title State diagram

state "ABOUT PAGE" as ABOUT_PAGE
state "CHANGE LOG PAGE" as CHANGE_LOG_PAGE
state "DOCUMENTATIONS PAGE" as DOCUMENTATIONS_PAGE
state "HOME PAGE" as HOME_PAGE
state "IBELLO PAGE" as IBELLO_PAGE
state "INSTALLATION DOC PAGE" as INSTALLATION_DOC_PAGE
state "INTEREST PAGE" as INTEREST_PAGE
state "ORDER PAGE WHITOUT PRODUCT" as ORDER_PAGE_WHITOUT_PRODUCT
state "ORDER PAGE WITH 1 HUNTER" as ORDER_PAGE_WITH_1_HUNTER
state "ORDER PAGE WITH 1 MASTER HUNTER" as ORDER_PAGE_WITH_1_MASTER_HUNTER
state "ORDER PAGE WITH 1 OUTPOST" as ORDER_PAGE_WITH_1_OUTPOST
state "ORDER PAGE WITH 1 SENTINEL" as ORDER_PAGE_WITH_1_SENTINEL
state "QUOTATION PAGE WITH AUTOMATED TESTS" as QUOTATION_PAGE_WITH_AUTOMATED_TESTS
state "QUOTATION PAGE WITH CONSULTANCY" as QUOTATION_PAGE_WITH_CONSULTANCY
state "QUOTATION PAGE WITH DEV AND TEST TRAINING" as QUOTATION_PAGE_WITH_DEV_AND_TEST_TRAINING
state "QUOTATION PAGE WITH ONLINE AUTOMATED TEST" as QUOTATION_PAGE_WITH_ONLINE_AUTOMATED_TEST
state "QUOTATION PAGE WITH TEST FRAMEWORK" as QUOTATION_PAGE_WITH_TEST_FRAMEWORK
state "QUOTATION PAGE WITHOUT SERVICE" as QUOTATION_PAGE_WITHOUT_SERVICE
state "SERVICES PAGE" as SERVICES_PAGE
state "SUPPORT PAGE" as SUPPORT_PAGE
state "TEST INIT" as TEST_INIT

CHANGE_LOG_PAGE - -> HOME_PAGE : logo button
DOCUMENTATIONS_PAGE - -> CHANGE_LOG_PAGE : read change log button
HOME_PAGE - -> ABOUT_PAGE : navbar about, details button
HOME_PAGE - -> DOCUMENTATIONS_PAGE : navbar support, documentations button
HOME_PAGE - -> IBELLO_PAGE : navbar product, learn more button
HOME_PAGE - -> IBELLO_PAGE : header our product
HOME_PAGE - -> INTEREST_PAGE : navbar product, try it button
HOME_PAGE - -> SERVICES_PAGE : header our services
HOME_PAGE - -> SERVICES_PAGE : navbar services, work with us button
HOME_PAGE - -> SUPPORT_PAGE : navbar support, more options button
IBELLO_PAGE - -> ABOUT_PAGE : navbar about button
IBELLO_PAGE - -> HOME_PAGE : logo button
IBELLO_PAGE - -> INTEREST_PAGE : header details, download button
IBELLO_PAGE - -> ORDER_PAGE_WHITOUT_PRODUCT : order now button
IBELLO_PAGE - -> ORDER_PAGE_WITH_1_HUNTER : order hunter button
IBELLO_PAGE - -> ORDER_PAGE_WITH_1_MASTER_HUNTER : order master hunter button
IBELLO_PAGE - -> ORDER_PAGE_WITH_1_OUTPOST : order outpost button
IBELLO_PAGE - -> ORDER_PAGE_WITH_1_SENTINEL : order sentinel button
IBELLO_PAGE - -> SERVICES_PAGE : navbar services button
IBELLO_PAGE - -> SUPPORT_PAGE : navbar support button
INSTALLATION_DOC_PAGE - -> DOCUMENTATIONS_PAGE : more documentations button
INTEREST_PAGE - -> DOCUMENTATIONS_PAGE : interest page, read it button
INTEREST_PAGE - -> INSTALLATION_DOC_PAGE : interest page, installation guide button
ORDER_PAGE_WHITOUT_PRODUCT - -> HOME_PAGE : logo button
SERVICES_PAGE - -> IBELLO_PAGE : navbar product button
SERVICES_PAGE - -> QUOTATION_PAGE_WITH_AUTOMATED_TESTS : request quotation for automated tests
SERVICES_PAGE - -> QUOTATION_PAGE_WITH_CONSULTANCY : request quotation for consultancy
SERVICES_PAGE - -> QUOTATION_PAGE_WITH_DEV_AND_TEST_TRAINING : request quotation for dev and test training
SERVICES_PAGE - -> QUOTATION_PAGE_WITH_ONLINE_AUTOMATED_TEST : request quotation for online automated test
SERVICES_PAGE - -> QUOTATION_PAGE_WITH_TEST_FRAMEWORK : request quotation for test framework
SERVICES_PAGE - -> QUOTATION_PAGE_WITHOUT_SERVICE : request quotation button
SUPPORT_PAGE - -> CHANGE_LOG_PAGE : change log button
SUPPORT_PAGE - -> DOCUMENTATIONS_PAGE : support page, read it button
SUPPORT_PAGE - -> IBELLO_PAGE : our product button
SUPPORT_PAGE - -> INSTALLATION_DOC_PAGE : support page, installation guide button
SUPPORT_PAGE - -> SERVICES_PAGE : our services
TEST_INIT - -> HOME_PAGE
@enduml

PlantUML version 1.2020.17beta5(Unknown compile time)
(GPL source distribution)
Java Runtime: Java(TM) SE Runtime Environment
JVM: Java HotSpot(TM) 64-Bit Server VM
Default Encoding: UTF-8
Language: en
Country: US
--></g></svg>