<?xml version="1.0" encoding="UTF-8" standalone="no"?><svg xmlns="http://www.w3.org/2000/svg" xmlns:xlink="http://www.w3.org/1999/xlink" contentScriptType="application/ecmascript" contentStyleType="text/css" height="671px" preserveAspectRatio="none" style="width:3499px;height:671px;" version="1.1" viewBox="0 0 3499 671" width="3499px" zoomAndPan="magnify"><defs><filter height="300%" id="faxhzb19c309n" width="300%" x="-1" y="-1"><feGaussianBlur result="blurOut" stdDeviation="2.0"/><feColorMatrix in="blurOut" result="blurOut2" type="matrix" values="0 0 0 0 0 0 0 0 0 0 0 0 0 0 0 0 0 0 .4 0"/><feOffset dx="4.0" dy="4.0" in="blurOut2" result="blurOut3"/><feBlend in="SourceGraphic" in2="blurOut3" mode="normal"/></filter></defs><g><text fill="#000000" font-family="sans-serif" font-size="18" lengthAdjust="spacingAndGlyphs" textLength="131" x="1675" y="16.708">State diagram</text><rect fill="#FEFECE" filter="url(#faxhzb19c309n)" height="40" rx="12.5" ry="12.5" style="stroke: #A80036; stroke-width: 1.5;" width="102" x="2029" y="27.9531"/><text fill="#000000" font-family="sans-serif" font-size="14" lengthAdjust="spacingAndGlyphs" textLength="92" x="2034" y="52.7998">ABOUT PAGE</text><rect fill="#FEFECE" filter="url(#faxhzb19c309n)" height="40" rx="12.5" ry="12.5" style="stroke: #A80036; stroke-width: 1.5;" width="187" x="2324.5" y="261.9531"/><text fill="#000000" font-family="sans-serif" font-size="14" lengthAdjust="spacingAndGlyphs" textLength="177" x="2329.5" y="286.7998">DOCUMENTATIONS PAGE</text><rect fill="#FEFECE" filter="url(#faxhzb19c309n)" height="40" rx="12.5" ry="12.5" style="stroke: #A80036; stroke-width: 1.5;" width="95" x="2484.5" y="144.9531"/><text fill="#000000" font-family="sans-serif" font-size="14" lengthAdjust="spacingAndGlyphs" textLength="85" x="2489.5" y="169.7998">HOME PAGE</text><rect fill="#FEFECE" filter="url(#faxhzb19c309n)" height="40" rx="12.5" ry="12.5" style="stroke: #A80036; stroke-width: 1.5;" width="103" x="2679.5" y="495.9531"/><text fill="#000000" font-family="sans-serif" font-size="14" lengthAdjust="spacingAndGlyphs" textLength="93" x="2684.5" y="520.7998">IBELLO PAGE</text><rect fill="#FEFECE" filter="url(#faxhzb19c309n)" height="40" rx="12.5" ry="12.5" style="stroke: #A80036; stroke-width: 1.5;" width="122" x="3144" y="612.9531"/><text fill="#000000" font-family="sans-serif" font-size="14" lengthAdjust="spacingAndGlyphs" textLength="112" x="3149" y="637.7998">INTEREST PAGE</text><rect fill="#FEFECE" filter="url(#faxhzb19c309n)" height="40" rx="12.5" ry="12.5" style="stroke: #A80036; stroke-width: 1.5;" width="247" x="2607.5" y="612.9531"/><text fill="#000000" font-family="sans-serif" font-size="14" lengthAdjust="spacingAndGlyphs" textLength="237" x="2612.5" y="637.7998">ORDER PAGE WHITOUT PRODUCT</text><rect fill="#FEFECE" filter="url(#faxhzb19c309n)" height="40" rx="12.5" ry="12.5" style="stroke: #A80036; stroke-width: 1.5;" width="219" x="2889.5" y="612.9531"/><text fill="#000000" font-family="sans-serif" font-size="14" lengthAdjust="spacingAndGlyphs" textLength="209" x="2894.5" y="637.7998">ORDER PAGE WITH 1 HUNTER</text><rect fill="#FEFECE" filter="url(#faxhzb19c309n)" height="40" rx="12.5" ry="12.5" style="stroke: #A80036; stroke-width: 1.5;" width="282" x="1760" y="612.9531"/><text fill="#000000" font-family="sans-serif" font-size="14" lengthAdjust="spacingAndGlyphs" textLength="272" x="1765" y="637.7998">ORDER PAGE WITH 1 MASTER HUNTER</text><rect fill="#FEFECE" filter="url(#faxhzb19c309n)" height="40" rx="12.5" ry="12.5" style="stroke: #A80036; stroke-width: 1.5;" width="229" x="2077.5" y="612.9531"/><text fill="#000000" font-family="sans-serif" font-size="14" lengthAdjust="spacingAndGlyphs" textLength="219" x="2082.5" y="637.7998">ORDER PAGE WITH 1 OUTPOST</text><rect fill="#FEFECE" filter="url(#faxhzb19c309n)" height="40" rx="12.5" ry="12.5" style="stroke: #A80036; stroke-width: 1.5;" width="230" x="2342" y="612.9531"/><text fill="#000000" font-family="sans-serif" font-size="14" lengthAdjust="spacingAndGlyphs" textLength="220" x="2347" y="637.7998">ORDER PAGE WITH 1 SENTINEL</text><rect fill="#FEFECE" filter="url(#faxhzb19c309n)" height="40" rx="12.5" ry="12.5" style="stroke: #A80036; stroke-width: 1.5;" width="111" x="2777.5" y="261.9531"/><text fill="#000000" font-family="sans-serif" font-size="14" lengthAdjust="spacingAndGlyphs" textLength="101" x="2782.5" y="286.7998">PRICING PAGE</text><rect fill="#FEFECE" filter="url(#faxhzb19c309n)" height="40" rx="12.5" ry="12.5" style="stroke: #A80036; stroke-width: 1.5;" width="321" x="1068.5" y="495.9531"/><text fill="#000000" font-family="sans-serif" font-size="14" lengthAdjust="spacingAndGlyphs" textLength="311" x="1073.5" y="520.7998">QUOTATION PAGE WITH AUTOMATED TESTS</text><rect fill="#FEFECE" filter="url(#faxhzb19c309n)" height="40" rx="12.5" ry="12.5" style="stroke: #A80036; stroke-width: 1.5;" width="287" x="1424.5" y="495.9531"/><text fill="#000000" font-family="sans-serif" font-size="14" lengthAdjust="spacingAndGlyphs" textLength="277" x="1429.5" y="520.7998">QUOTATION PAGE WITH CONSULTANCY</text><rect fill="#FEFECE" filter="url(#faxhzb19c309n)" height="40" rx="12.5" ry="12.5" style="stroke: #A80036; stroke-width: 1.5;" width="359" x="1746.5" y="495.9531"/><text fill="#000000" font-family="sans-serif" font-size="14" lengthAdjust="spacingAndGlyphs" textLength="349" x="1751.5" y="520.7998">QUOTATION PAGE WITH DEV AND TEST TRAINING</text><rect fill="#FEFECE" filter="url(#faxhzb19c309n)" height="40" rx="12.5" ry="12.5" style="stroke: #A80036; stroke-width: 1.5;" width="368" x="7" y="495.9531"/><text fill="#000000" font-family="sans-serif" font-size="14" lengthAdjust="spacingAndGlyphs" textLength="358" x="12" y="520.7998">QUOTATION PAGE WITH ONLINE AUTOMATED TEST</text><rect fill="#FEFECE" filter="url(#faxhzb19c309n)" height="40" rx="12.5" ry="12.5" style="stroke: #A80036; stroke-width: 1.5;" width="316" x="410" y="495.9531"/><text fill="#000000" font-family="sans-serif" font-size="14" lengthAdjust="spacingAndGlyphs" textLength="306" x="415" y="520.7998">QUOTATION PAGE WITH TEST FRAMEWORK</text><rect fill="#FEFECE" filter="url(#faxhzb19c309n)" height="40" rx="12.5" ry="12.5" style="stroke: #A80036; stroke-width: 1.5;" width="272" x="761" y="495.9531"/><text fill="#000000" font-family="sans-serif" font-size="14" lengthAdjust="spacingAndGlyphs" textLength="262" x="766" y="520.7998">QUOTATION PAGE WITHOUT SERVICE</text><rect fill="#FEFECE" filter="url(#faxhzb19c309n)" height="40" rx="12.5" ry="12.5" style="stroke: #A80036; stroke-width: 1.5;" width="123" x="1481.5" y="378.9531"/><text fill="#000000" font-family="sans-serif" font-size="14" lengthAdjust="spacingAndGlyphs" textLength="113" x="1486.5" y="403.7998">SERVICES PAGE</text><rect fill="#FEFECE" filter="url(#faxhzb19c309n)" height="40" rx="12.5" ry="12.5" style="stroke: #A80036; stroke-width: 1.5;" width="119" x="2104.5" y="261.9531"/><text fill="#000000" font-family="sans-serif" font-size="14" lengthAdjust="spacingAndGlyphs" textLength="109" x="2109.5" y="286.7998">SUPPORT PAGE</text><rect fill="#FEFECE" filter="url(#faxhzb19c309n)" height="40" rx="12.5" ry="12.5" style="stroke: #A80036; stroke-width: 1.5;" width="77" x="3401.5" y="27.9531"/><text fill="#000000" font-family="sans-serif" font-size="14" lengthAdjust="spacingAndGlyphs" textLength="67" x="3406.5" y="52.7998">TEST INIT</text><!--MD5=[73764308eb9c714525506d9f2e39506c]
link ABOUT_PAGE to HOME_PAGE--><path d="M2131.42,59.9531 C2175.08,69.4641 2239.33,83.8661 2295,97.9531 C2358.65,114.0591 2431.31,134.6201 2479.22,148.4791 " fill="none" id="ABOUT_PAGE-to-HOME_PAGE" style="stroke: #A80036; stroke-width: 1.0;"/><polygon fill="#A80036" points="2484.06,149.8821,2476.539,143.5233,2479.2598,148.4829,2474.3002,151.2037,2484.06,149.8821" style="stroke: #A80036; stroke-width: 1.0;"/><text fill="#000000" font-family="sans-serif" font-size="13" lengthAdjust="spacingAndGlyphs" textLength="73" x="2355" y="111.02">logo button</text><!--MD5=[72f2cfb667919726a0a49d17a35fafaf]
link HOME_PAGE to ABOUT_PAGE--><path d="M2484.42,161.8661 C2394.37,157.2791 2202.77,144.3041 2144,114.9531 C2124.42,105.1751 2107.46,86.9391 2095.92,72.1091 " fill="none" id="HOME_PAGE-to-ABOUT_PAGE" style="stroke: #A80036; stroke-width: 1.0;"/><polygon fill="#A80036" points="2092.81,68.0271,2095.0681,77.6136,2095.8341,72.0089,2101.4389,72.775,2092.81,68.0271" style="stroke: #A80036; stroke-width: 1.0;"/><text fill="#000000" font-family="sans-serif" font-size="13" lengthAdjust="spacingAndGlyphs" textLength="141" x="2145" y="111.02">navbar, details button</text><!--MD5=[840611bb59a68a34e5d57fa2fc618648]
link ABOUT_PAGE to IBELLO_PAGE--><path d="M2131.33,48.5201 C2340.83,47.1071 3124.6,45.4071 3221,97.9531 C3299.39,140.6811 3309.95,176.8701 3337,261.9531 C3366.47,354.6661 3233.3,325.5221 3152,378.9531 C3105.51,409.5081 3111.91,441.3691 3062,465.9531 C3014.96,489.1251 2869.65,503.9841 2788.07,510.7301 " fill="none" id="ABOUT_PAGE-to-IBELLO_PAGE" style="stroke: #A80036; stroke-width: 1.0;"/><polygon fill="#A80036" points="2782.79,511.1631,2792.0811,514.4304,2787.774,510.7631,2791.4412,506.456,2782.79,511.1631" style="stroke: #A80036; stroke-width: 1.0;"/><text fill="#000000" font-family="sans-serif" font-size="13" lengthAdjust="spacingAndGlyphs" textLength="144" x="3343" y="286.52">navbar product button</text><!--MD5=[8351fa3cc6ba7a8d542f8e7ea942e4af]
link IBELLO_PAGE to ABOUT_PAGE--><path d="M2782.56,510.6981 C2869.32,500.3701 3041.7,465.4571 3110,348.9531 C3141.99,294.3781 3111.06,254.8921 3062,214.9531 C2917.86,97.6131 2323.26,60.2841 2136.44,51.3351 " fill="none" id="IBELLO_PAGE-to-ABOUT_PAGE" style="stroke: #A80036; stroke-width: 1.0;"/><polygon fill="#A80036" points="2131.3,51.0911,2140.0951,55.5235,2136.2941,51.334,2140.4837,47.533,2131.3,51.0911" style="stroke: #A80036; stroke-width: 1.0;"/><text fill="#000000" font-family="sans-serif" font-size="13" lengthAdjust="spacingAndGlyphs" textLength="132" x="3124" y="286.52">navbar about button</text><!--MD5=[56ff1421579fdc8308b35ca0735aa49e]
link ABOUT_PAGE to SERVICES_PAGE--><path d="M2028.52,54.3251 C1890.4,69.9211 1517.38,120.2211 1447,214.9531 C1407.51,268.1011 1474.85,339.7221 1515.51,375.5631 " fill="none" id="ABOUT_PAGE-to-SERVICES_PAGE" style="stroke: #A80036; stroke-width: 1.0;"/><polygon fill="#A80036" points="1519.36,378.9181,1515.205,369.9886,1515.5913,375.6323,1509.9476,376.0186,1519.36,378.9181" style="stroke: #A80036; stroke-width: 1.0;"/><text fill="#000000" font-family="sans-serif" font-size="13" lengthAdjust="spacingAndGlyphs" textLength="148" x="1448" y="228.02">navbar services button</text><!--MD5=[f46fbb690161f8b5257ac081b2e6c1f7]
link SERVICES_PAGE to ABOUT_PAGE--><path d="M1481.4,381.5601 C1391.88,354.5691 1242.16,295.6181 1297,214.9531 C1379.41,93.7411 1857.71,59.5751 2023.47,51.3041 " fill="none" id="SERVICES_PAGE-to-ABOUT_PAGE" style="stroke: #A80036; stroke-width: 1.0;"/><polygon fill="#A80036" points="2028.76,51.0441,2019.5763,47.486,2023.7659,51.287,2019.9649,55.4765,2028.76,51.0441" style="stroke: #A80036; stroke-width: 1.0;"/><text fill="#000000" font-family="sans-serif" font-size="13" lengthAdjust="spacingAndGlyphs" textLength="132" x="1298" y="228.02">navbar about button</text><!--MD5=[8ca5b46b76fd7dc5b4aa4298d863a2dd]
link ABOUT_PAGE to SUPPORT_PAGE--><path d="M2028.67,55.4381 C1941.22,68.7761 1777.46,105.0081 1828,184.9531 C1889.9,282.8641 1963.62,238.2361 2077,261.9531 C2084.13,263.4451 2091.59,265.0311 2099,266.6271 " fill="none" id="ABOUT_PAGE-to-SUPPORT_PAGE" style="stroke: #A80036; stroke-width: 1.0;"/><polygon fill="#A80036" points="2104.12,267.7321,2096.1691,261.9198,2099.233,266.675,2094.4778,269.7389,2104.12,267.7321" style="stroke: #A80036; stroke-width: 1.0;"/><text fill="#000000" font-family="sans-serif" font-size="13" lengthAdjust="spacingAndGlyphs" textLength="144" x="1829" y="169.52">navbar support button</text><!--MD5=[bf35e7b162203b24bd348e98dd645957]
link SUPPORT_PAGE to ABOUT_PAGE--><path d="M2112.08,261.7371 C2099.36,254.4291 2087.32,244.6901 2080,231.9531 C2051.19,181.7991 2063.36,110.4351 2072.79,73.3881 " fill="none" id="SUPPORT_PAGE-to-ABOUT_PAGE" style="stroke: #A80036; stroke-width: 1.0;"/><polygon fill="#A80036" points="2074.15,68.1781,2068,75.8708,2072.883,73.0149,2075.7389,77.898,2074.15,68.1781" style="stroke: #A80036; stroke-width: 1.0;"/><text fill="#000000" font-family="sans-serif" font-size="13" lengthAdjust="spacingAndGlyphs" textLength="132" x="2066" y="169.52">navbar about button</text><!--MD5=[571f064aaf60dcf84b87353872a09a58]
link DOCUMENTATIONS_PAGE to HOME_PAGE--><path d="M2454.48,261.7751 C2467.63,253.7271 2481.93,243.5331 2493,231.9531 C2504.71,219.7001 2514.42,203.3041 2521.23,189.9191 " fill="none" id="DOCUMENTATIONS_PAGE-to-HOME_PAGE" style="stroke: #A80036; stroke-width: 1.0;"/><polygon fill="#A80036" points="2523.6,185.1371,2516.0118,191.4156,2521.3742,189.6144,2523.1754,194.9768,2523.6,185.1371" style="stroke: #A80036; stroke-width: 1.0;"/><text fill="#000000" font-family="sans-serif" font-size="13" lengthAdjust="spacingAndGlyphs" textLength="73" x="2508" y="228.02">logo button</text><!--MD5=[f8f49bc6029af5c12e11a2cdd2046a5a]
link HOME_PAGE to DOCUMENTATIONS_PAGE--><path d="M2484.16,171.0031 C2431.38,177.6771 2351.44,191.4281 2333,214.9531 C2319.23,232.5311 2336.85,248.0831 2359.54,259.6681 " fill="none" id="HOME_PAGE-to-DOCUMENTATIONS_PAGE" style="stroke: #A80036; stroke-width: 1.0;"/><polygon fill="#A80036" points="2364.14,261.9321,2357.8199,254.3786,2359.6506,259.731,2354.2981,261.5616,2364.14,261.9321" style="stroke: #A80036; stroke-width: 1.0;"/><text fill="#000000" font-family="sans-serif" font-size="13" lengthAdjust="spacingAndGlyphs" textLength="150" x="2334" y="228.02">documentations button</text><!--MD5=[06b78a588132116cab8cfe4a4b5c128d]
link HOME_PAGE to IBELLO_PAGE--><path d="M2579.82,168.0891 C2683.76,173.2211 2922.93,187.8751 2947,214.9531 C2985.89,258.7081 2910.56,426.8421 2867,465.9531 C2844.94,485.7631 2814.27,497.7241 2787.64,504.8621 " fill="none" id="HOME_PAGE-to-IBELLO_PAGE" style="stroke: #A80036; stroke-width: 1.0;"/><polygon fill="#A80036" points="2782.72,506.1401,2792.4367,507.7484,2787.5593,504.8828,2790.4249,500.0055,2782.72,506.1401" style="stroke: #A80036; stroke-width: 1.0;"/><text fill="#000000" font-family="sans-serif" font-size="13" lengthAdjust="spacingAndGlyphs" textLength="158" x="2943" y="345.02">our product from header</text><!--MD5=[06b78a588132116cab8cfe4a4b5c128d]
link HOME_PAGE to IBELLO_PAGE--><path d="M2561.24,185.0511 C2571.65,193.1551 2582.61,203.4071 2590,214.9531 C2623.31,266.9901 2583.98,304.6031 2627,348.9531 C2658.42,381.3451 2696.29,343.3351 2724,378.9531 C2748.98,411.0581 2743.54,461.4361 2737.29,491.0261 " fill="none" id="HOME_PAGE-to-IBELLO_PAGE-1" style="stroke: #A80036; stroke-width: 1.0;"/><polygon fill="#A80036" points="2736.21,495.9451,2742.061,488.0226,2737.2909,491.0633,2734.2501,486.2932,2736.21,495.9451" style="stroke: #A80036; stroke-width: 1.0;"/><text fill="#000000" font-family="sans-serif" font-size="13" lengthAdjust="spacingAndGlyphs" textLength="169" x="2628" y="345.02">navbar, learn more button</text><!--MD5=[4779d3c58802f9052ed3e7cc5a5f0504]
link IBELLO_PAGE to HOME_PAGE--><path d="M2749.13,495.8051 C2779.14,461.6951 2832.87,388.6731 2802,331.9531 C2799.14,326.6951 2626.14,218.0241 2621,214.9531 C2605.49,205.6891 2588.15,195.9951 2572.92,187.6981 " fill="none" id="IBELLO_PAGE-to-HOME_PAGE" style="stroke: #A80036; stroke-width: 1.0;"/><polygon fill="#A80036" points="2568.27,185.1711,2574.271,192.9806,2572.6642,187.5568,2578.088,185.95,2568.27,185.1711" style="stroke: #A80036; stroke-width: 1.0;"/><text fill="#000000" font-family="sans-serif" font-size="13" lengthAdjust="spacingAndGlyphs" textLength="73" x="2810" y="345.02">logo button</text><!--MD5=[b16faf295aa5e77ec0263a02b6ba28c8]
link HOME_PAGE to INTEREST_PAGE--><path d="M2579.83,167.5601 C2679.83,171.5081 2907.59,183.7351 2978,214.9531 C2986.96,218.9251 3104.66,323.7351 3110,331.9531 C3169.27,423.1961 3193.82,554.0413 3201.8,607.6467 " fill="none" id="HOME_PAGE-to-INTEREST_PAGE" style="stroke: #A80036; stroke-width: 1.0;"/><polygon fill="#A80036" points="3202.56,612.8917,3205.2193,603.4087,3201.8384,607.9441,3197.3031,604.5632,3202.56,612.8917" style="stroke: #A80036; stroke-width: 1.0;"/><text fill="#000000" font-family="sans-serif" font-size="13" lengthAdjust="spacingAndGlyphs" textLength="76" x="3154" y="403.52">try it button</text><!--MD5=[1f1ee2ed4de4b0ba12fa285033aa5ace]
link INTEREST_PAGE to HOME_PAGE--><path d="M3214.73,612.8783 C3235.72,568.8706 3280.14,457.9651 3239,378.9531 C3211.44,326.0211 3176.03,338.6941 3129,301.9531 C3107.65,285.2731 3104.4,278.5701 3083,261.9531 C3053.98,239.4201 3049.47,227.6521 3015,214.9531 C2937.15,186.2741 2693.38,172.7261 2584.93,167.9981 " fill="none" id="INTEREST_PAGE-to-HOME_PAGE" style="stroke: #A80036; stroke-width: 1.0;"/><polygon fill="#A80036" points="2579.87,167.7791,2588.6903,172.1612,2584.8654,167.9935,2589.0332,164.1686,2579.87,167.7791" style="stroke: #A80036; stroke-width: 1.0;"/><text fill="#000000" font-family="sans-serif" font-size="13" lengthAdjust="spacingAndGlyphs" textLength="73" x="3254" y="403.52">logo button</text><!--MD5=[3bd62355f4bd91438d8f27a4b76a1019]
link HOME_PAGE to PRICING_PAGE--><path d="M2579.61,178.8261 C2611.28,187.8501 2653.6,200.7941 2690,214.9531 C2706.49,221.3671 2709.96,224.4911 2726,231.9531 C2745.73,241.1271 2767.55,251.1461 2786.32,259.7201 " fill="none" id="HOME_PAGE-to-PRICING_PAGE" style="stroke: #A80036; stroke-width: 1.0;"/><polygon fill="#A80036" points="2791.02,261.8681,2784.4871,254.4978,2786.4696,259.7959,2781.1716,261.7784,2791.02,261.8681" style="stroke: #A80036; stroke-width: 1.0;"/><text fill="#000000" font-family="sans-serif" font-size="13" lengthAdjust="spacingAndGlyphs" textLength="126" x="2727" y="228.02">order details button</text><!--MD5=[addfb1d58836a06f9dea0d967c49f3f2]
link PRICING_PAGE to HOME_PAGE--><path d="M2849.78,261.7861 C2860.16,247.5361 2869.51,228.3241 2858,214.9531 C2823.42,174.7931 2668.28,167.0941 2585.1,165.9081 " fill="none" id="PRICING_PAGE-to-HOME_PAGE" style="stroke: #A80036; stroke-width: 1.0;"/><polygon fill="#A80036" points="2579.73,165.8391,2588.6719,169.9673,2584.7295,165.9105,2588.7862,161.9681,2579.73,165.8391" style="stroke: #A80036; stroke-width: 1.0;"/><text fill="#000000" font-family="sans-serif" font-size="13" lengthAdjust="spacingAndGlyphs" textLength="73" x="2865" y="228.02">logo button</text><!--MD5=[dad794bd955b7a6191a6046dd12b3ce3]
link HOME_PAGE to SERVICES_PAGE--><path d="M2484.26,168.7751 C2314.99,178.7921 1752.66,212.1981 1734,214.9531 C1689.05,221.5921 1563.2,226.3211 1535,261.9531 C1509.75,293.8631 1522.05,344.3081 1532.84,373.9631 " fill="none" id="HOME_PAGE-to-SERVICES_PAGE" style="stroke: #A80036; stroke-width: 1.0;"/><polygon fill="#A80036" points="1534.69,378.8931,1535.2778,369.0618,1532.9356,374.211,1527.7864,371.8688,1534.69,378.8931" style="stroke: #A80036; stroke-width: 1.0;"/><text fill="#000000" font-family="sans-serif" font-size="13" lengthAdjust="spacingAndGlyphs" textLength="180" x="1536" y="286.52">navbar, work with us button</text><!--MD5=[dad794bd955b7a6191a6046dd12b3ce3]
link HOME_PAGE to SERVICES_PAGE--><path d="M2484.3,169.0641 C2367.02,176.8811 2066.92,197.9361 1968,214.9531 C1886.09,229.0441 1863.57,229.6291 1787,261.9531 C1755.4,275.2931 1750.77,284.9181 1721,301.9531 C1674.77,328.4041 1620.83,357.2141 1584.55,376.3011 " fill="none" id="HOME_PAGE-to-SERVICES_PAGE-1" style="stroke: #A80036; stroke-width: 1.0;"/><polygon fill="#A80036" points="1579.77,378.8121,1589.5973,378.1614,1584.1949,376.484,1585.8723,371.0815,1579.77,378.8121" style="stroke: #A80036; stroke-width: 1.0;"/><text fill="#000000" font-family="sans-serif" font-size="13" lengthAdjust="spacingAndGlyphs" textLength="162" x="1788" y="286.52">our services from header</text><!--MD5=[6480bedf724962bb859c19cbbae650bd]
link SERVICES_PAGE to HOME_PAGE--><path d="M1604.69,391.0511 C1687.37,380.1551 1837.33,354.5601 1955,301.9531 C2016.79,274.3271 2016.57,238.5681 2080,214.9531 C2152.02,188.1431 2375.97,173.7691 2479.07,168.4241 " fill="none" id="SERVICES_PAGE-to-HOME_PAGE" style="stroke: #A80036; stroke-width: 1.0;"/><polygon fill="#A80036" points="2484.19,168.1611,2474.9962,164.6293,2479.1966,168.4183,2475.4076,172.6187,2484.19,168.1611" style="stroke: #A80036; stroke-width: 1.0;"/><text fill="#000000" font-family="sans-serif" font-size="13" lengthAdjust="spacingAndGlyphs" textLength="73" x="2013" y="286.52">logo button</text><!--MD5=[32120a82014fb34c6e5bf1f95a735e5f]
link HOME_PAGE to SUPPORT_PAGE--><path d="M2484.4,166.8331 C2400.88,169.3161 2232.56,178.7921 2188,214.9531 C2175.52,225.0801 2169.53,242.2761 2166.65,256.5771 " fill="none" id="HOME_PAGE-to-SUPPORT_PAGE" style="stroke: #A80036; stroke-width: 1.0;"/><polygon fill="#A80036" points="2165.73,261.6961,2171.2698,253.553,2166.621,256.7762,2163.3979,252.1274,2165.73,261.6961" style="stroke: #A80036; stroke-width: 1.0;"/><text fill="#000000" font-family="sans-serif" font-size="13" lengthAdjust="spacingAndGlyphs" textLength="131" x="2189" y="228.02">more options button</text><!--MD5=[a4a16c82f86cebc9989109909863ae1f]
link SUPPORT_PAGE to HOME_PAGE--><path d="M2121,261.8651 C2098.27,249.1851 2077.91,231.8231 2093,214.9531 C2118.35,186.6111 2367.96,172.7721 2479.1,167.9771 " fill="none" id="SUPPORT_PAGE-to-HOME_PAGE" style="stroke: #A80036; stroke-width: 1.0;"/><polygon fill="#A80036" points="2484.28,167.7551,2475.1169,164.1445,2479.2846,167.9694,2475.4597,172.1371,2484.28,167.7551" style="stroke: #A80036; stroke-width: 1.0;"/><text fill="#000000" font-family="sans-serif" font-size="13" lengthAdjust="spacingAndGlyphs" textLength="73" x="2094" y="228.02">logo button</text><!--MD5=[40eb609038141a07911d6d2cd8433187]
link IBELLO_PAGE to INTEREST_PAGE--><path d="M2782.64,521.2931 C2841.78,527.2501 2941.09,540.2801 3023,565.9531 C3039.88,571.2449 3042.58,576.349 3059,582.9531 C3084.7,593.2907 3113.5,603.2857 3138.7,611.5225 " fill="none" id="IBELLO_PAGE-to-INTEREST_PAGE" style="stroke: #A80036; stroke-width: 1.0;"/><polygon fill="#A80036" points="3143.68,613.146,3136.3541,606.5634,3138.9241,611.6027,3133.8848,614.1728,3143.68,613.146" style="stroke: #A80036; stroke-width: 1.0;"/><text fill="#000000" font-family="sans-serif" font-size="13" lengthAdjust="spacingAndGlyphs" textLength="108" x="3060" y="579.02">download button</text><!--MD5=[d8b6f0ec8c8f9998ef9896903f7a179b]
link IBELLO_PAGE to ORDER_PAGE_WHITOUT_PRODUCT--><path d="M2731,536.2011 C2731,555.7714 2731,586.1601 2731,607.4401 " fill="none" id="IBELLO_PAGE-to-ORDER_PAGE_WHITOUT_PRODUCT" style="stroke: #A80036; stroke-width: 1.0;"/><polygon fill="#A80036" points="2731,612.6419,2735,603.6419,2731,607.6419,2727,603.6419,2731,612.6419" style="stroke: #A80036; stroke-width: 1.0;"/><text fill="#000000" font-family="sans-serif" font-size="13" lengthAdjust="spacingAndGlyphs" textLength="111" x="2732" y="579.02">order now button</text><!--MD5=[4a6bff069c2e2ea8e34270ff35a2cae1]
link IBELLO_PAGE to ORDER_PAGE_WITH_1_HUNTER--><path d="M2779.16,535.9781 C2801.41,544.8901 2828.13,555.7666 2852,565.9531 C2870.96,574.0454 2916.81,594.6955 2952.31,610.7618 " fill="none" id="IBELLO_PAGE-to-ORDER_PAGE_WITH_1_HUNTER" style="stroke: #A80036; stroke-width: 1.0;"/><polygon fill="#A80036" points="2957.02,612.8965,2950.4642,605.5466,2952.4632,610.8385,2947.1713,612.8375,2957.02,612.8965" style="stroke: #A80036; stroke-width: 1.0;"/><text fill="#000000" font-family="sans-serif" font-size="13" lengthAdjust="spacingAndGlyphs" textLength="126" x="2889" y="579.02">order hunter button</text><!--MD5=[fd4e98dd3af57f9df042b1891e4861dd]
link IBELLO_PAGE to ORDER_PAGE_WITH_1_MASTER_HUNTER--><path d="M2679.26,518.6081 C2578.87,522.4361 2350.95,534.1421 2162,565.9531 C2095.69,577.116 2021.49,596.575 1969.2,611.4809 " fill="none" id="IBELLO_PAGE-to-ORDER_PAGE_WITH_1_MASTER_HUNTER" style="stroke: #A80036; stroke-width: 1.0;"/><polygon fill="#A80036" points="1964.21,612.9088,1973.9621,614.2862,1969.0181,611.5371,1971.7673,606.5931,1964.21,612.9088" style="stroke: #A80036; stroke-width: 1.0;"/><text fill="#000000" font-family="sans-serif" font-size="13" lengthAdjust="spacingAndGlyphs" textLength="176" x="2163" y="579.02">order master hunter button</text><!--MD5=[5ad5ea5b449637ee26f24877bc3a6c2c]
link IBELLO_PAGE to ORDER_PAGE_WITH_1_OUTPOST--><path d="M2679.38,522.4281 C2615.25,529.7691 2502.71,544.4201 2408,565.9531 C2354.25,578.1738 2294.39,596.8758 2251.35,611.2553 " fill="none" id="IBELLO_PAGE-to-ORDER_PAGE_WITH_1_OUTPOST" style="stroke: #A80036; stroke-width: 1.0;"/><polygon fill="#A80036" points="2246.45,612.898,2256.2565,613.8101,2251.1875,611.2992,2253.6984,606.2301,2246.45,612.898" style="stroke: #A80036; stroke-width: 1.0;"/><text fill="#000000" font-family="sans-serif" font-size="13" lengthAdjust="spacingAndGlyphs" textLength="133" x="2409" y="579.02">order outpost button</text><!--MD5=[1ccce37cef35c5f879122a2115cc5c38]
link IBELLO_PAGE to ORDER_PAGE_WITH_1_SENTINEL--><path d="M2679.36,532.5651 C2651.62,541.4371 2617.05,553.2863 2587,565.9531 C2555.6,579.1874 2521.28,596.754 2495.78,610.4367 " fill="none" id="IBELLO_PAGE-to-ORDER_PAGE_WITH_1_SENTINEL" style="stroke: #A80036; stroke-width: 1.0;"/><polygon fill="#A80036" points="2491.13,612.9445,2500.9505,612.1973,2495.5318,610.573,2497.1561,605.1544,2491.13,612.9445" style="stroke: #A80036; stroke-width: 1.0;"/><text fill="#000000" font-family="sans-serif" font-size="13" lengthAdjust="spacingAndGlyphs" textLength="134" x="2588" y="579.02">order sentinel button</text><!--MD5=[2439d89fa192a4b9fb14e63f240c9e91]
link IBELLO_PAGE to SERVICES_PAGE--><path d="M2679.19,514.4961 C2597.18,512.5731 2433.1,503.8211 2300,465.9531 C2282.98,461.1111 2281.12,453.4081 2264,448.9531 C2141.53,417.0901 1764.35,405.0171 1609.95,401.3301 " fill="none" id="IBELLO_PAGE-to-SERVICES_PAGE" style="stroke: #A80036; stroke-width: 1.0;"/><polygon fill="#A80036" points="1604.55,401.2021,1613.4562,405.4068,1609.5487,401.3164,1613.6391,397.4089,1604.55,401.2021" style="stroke: #A80036; stroke-width: 1.0;"/><text fill="#000000" font-family="sans-serif" font-size="13" lengthAdjust="spacingAndGlyphs" textLength="148" x="2301" y="462.02">navbar services button</text><!--MD5=[5e94cb434b9cd303b070acfd61ed6969]
link SERVICES_PAGE to IBELLO_PAGE--><path d="M1604.81,402.5471 C1726.05,408.1371 1990.85,422.9631 2078,448.9531 C2093.43,453.5561 2094.54,461.4481 2110,465.9531 C2214.95,496.5331 2541.37,509.3721 2674.06,513.4201 " fill="none" id="SERVICES_PAGE-to-IBELLO_PAGE" style="stroke: #A80036; stroke-width: 1.0;"/><polygon fill="#A80036" points="2679.08,513.5721,2670.2101,509.2913,2674.0825,513.415,2669.9588,517.2874,2679.08,513.5721" style="stroke: #A80036; stroke-width: 1.0;"/><text fill="#000000" font-family="sans-serif" font-size="13" lengthAdjust="spacingAndGlyphs" textLength="144" x="2111" y="462.02">navbar product button</text><!--MD5=[b2f7d87db9726743bf8f7bcaa3f02a08]
link IBELLO_PAGE to SUPPORT_PAGE--><path d="M2701.16,495.9221 C2656.58,467.9921 2569.44,415.2821 2491,378.9531 C2436.01,353.4841 2420.96,349.6691 2363,331.9531 C2318.71,318.4151 2268.02,305.9771 2228.88,297.0201 " fill="none" id="IBELLO_PAGE-to-SUPPORT_PAGE" style="stroke: #A80036; stroke-width: 1.0;"/><polygon fill="#A80036" points="2223.68,295.8341,2231.579,301.7167,2228.5574,296.9345,2233.3396,293.9129,2223.68,295.8341" style="stroke: #A80036; stroke-width: 1.0;"/><text fill="#000000" font-family="sans-serif" font-size="13" lengthAdjust="spacingAndGlyphs" textLength="144" x="2571" y="403.52">navbar support button</text><!--MD5=[1ca56f0c75662e09ff458ab09c6f4cde]
link SUPPORT_PAGE to IBELLO_PAGE--><path d="M2223.58,293.2231 C2249.71,300.3291 2279.12,312.2141 2300,331.9531 C2330.54,360.8161 2304.97,391.7611 2337,418.9531 C2340.26,421.7211 2565.8,475.6511 2674.13,501.4391 " fill="none" id="SUPPORT_PAGE-to-IBELLO_PAGE" style="stroke: #A80036; stroke-width: 1.0;"/><polygon fill="#A80036" points="2679.2,502.6451,2671.37,496.6709,2674.3357,501.488,2669.5186,504.4537,2679.2,502.6451" style="stroke: #A80036; stroke-width: 1.0;"/><text fill="#000000" font-family="sans-serif" font-size="13" lengthAdjust="spacingAndGlyphs" textLength="144" x="2338" y="403.52">navbar product button</text><!--MD5=[62a2caf82fa6b56e94a90797d9905581]
link SERVICES_PAGE to QUOTATION_PAGE_WITH_AUTOMATED_TESTS--><path d="M1481.41,406.4191 C1414.87,414.2801 1313.96,429.0081 1281,448.9531 C1264.15,459.1511 1250.61,476.9531 1241.57,491.5011 " fill="none" id="SERVICES_PAGE-to-QUOTATION_PAGE_WITH_AUTOMATED_TESTS" style="stroke: #A80036; stroke-width: 1.0;"/><polygon fill="#A80036" points="1238.91,495.8991,1246.9856,490.2614,1241.494,491.6186,1240.1368,486.127,1238.91,495.8991" style="stroke: #A80036; stroke-width: 1.0;"/><text fill="#000000" font-family="sans-serif" font-size="13" lengthAdjust="spacingAndGlyphs" textLength="247" x="1282" y="462.02">request quotation for automated tests</text><!--MD5=[0a6aa68f9e5c70d390c6bbbfd2a57031]
link SERVICES_PAGE to QUOTATION_PAGE_WITH_CONSULTANCY--><path d="M1539.13,419.0541 C1537.14,432.4101 1535.91,450.5441 1540,465.9531 C1542.33,474.7361 1546.65,483.5871 1551.21,491.3031 " fill="none" id="SERVICES_PAGE-to-QUOTATION_PAGE_WITH_CONSULTANCY" style="stroke: #A80036; stroke-width: 1.0;"/><polygon fill="#A80036" points="1554.06,495.9511,1552.7687,486.1873,1551.4478,491.6877,1545.9473,490.3668,1554.06,495.9511" style="stroke: #A80036; stroke-width: 1.0;"/><text fill="#000000" font-family="sans-serif" font-size="13" lengthAdjust="spacingAndGlyphs" textLength="217" x="1541" y="462.02">request quotation for consultancy</text><!--MD5=[e8bbc9d0676b12d2bef984a7cbe25c28]
link SERVICES_PAGE to QUOTATION_PAGE_WITH_DEV_AND_TEST_TRAINING--><path d="M1604.7,409.9051 C1649.37,418.0181 1710.81,431.0661 1763,448.9531 C1779.74,454.6891 1782.74,458.9861 1799,465.9531 C1821.72,475.6851 1847.07,485.6441 1869.12,494.0201 " fill="none" id="SERVICES_PAGE-to-QUOTATION_PAGE_WITH_DEV_AND_TEST_TRAINING" style="stroke: #A80036; stroke-width: 1.0;"/><polygon fill="#A80036" points="1874.06,495.8931,1867.0609,488.964,1869.3843,494.1217,1864.2266,496.4451,1874.06,495.8931" style="stroke: #A80036; stroke-width: 1.0;"/><text fill="#000000" font-family="sans-serif" font-size="13" lengthAdjust="spacingAndGlyphs" textLength="273" x="1800" y="462.02">request quotation for dev and test training</text><!--MD5=[6c3e88df9d704bd02aa4034778b9d9d3]
link SERVICES_PAGE to QUOTATION_PAGE_WITH_ONLINE_AUTOMATED_TEST--><path d="M1481.32,400.7811 C1278.11,403.8041 630.969,415.8501 425,448.9531 C364.16,458.7311 296.613,478.8201 249.794,494.2801 " fill="none" id="SERVICES_PAGE-to-QUOTATION_PAGE_WITH_ONLINE_AUTOMATED_TEST" style="stroke: #A80036; stroke-width: 1.0;"/><polygon fill="#A80036" points="245.045,495.8561,254.8467,496.819,249.7907,494.2818,252.3278,489.2259,245.045,495.8561" style="stroke: #A80036; stroke-width: 1.0;"/><text fill="#000000" font-family="sans-serif" font-size="13" lengthAdjust="spacingAndGlyphs" textLength="282" x="426" y="462.02">request quotation for online automated test</text><!--MD5=[87c46dc58a1ac98545ea112919244561]
link SERVICES_PAGE to QUOTATION_PAGE_WITH_TEST_FRAMEWORK--><path d="M1481.33,399.0851 C1351.15,398.3101 1039.21,402.0351 783,448.9531 C727.528,459.1111 666.212,478.8161 623.304,494.0611 " fill="none" id="SERVICES_PAGE-to-QUOTATION_PAGE_WITH_TEST_FRAMEWORK" style="stroke: #A80036; stroke-width: 1.0;"/><polygon fill="#A80036" points="618.427,495.8031,628.248,496.5434,623.1358,494.1216,625.5576,489.0094,618.427,495.8031" style="stroke: #A80036; stroke-width: 1.0;"/><text fill="#000000" font-family="sans-serif" font-size="13" lengthAdjust="spacingAndGlyphs" textLength="239" x="784" y="462.02">request quotation for test framework</text><!--MD5=[766544e702c219465e6bed9a8e8a9efa]
link SERVICES_PAGE to QUOTATION_PAGE_WITHOUT_SERVICE--><path d="M1481.4,402.3921 C1393.92,406.8131 1229.09,418.6871 1092,448.9531 C1042.4,459.9041 987.773,479.0361 948.987,493.8921 " fill="none" id="SERVICES_PAGE-to-QUOTATION_PAGE_WITHOUT_SERVICE" style="stroke: #A80036; stroke-width: 1.0;"/><polygon fill="#A80036" points="943.861,495.8661,953.6973,496.3639,948.5268,494.0689,950.8218,488.8985,943.861,495.8661" style="stroke: #A80036; stroke-width: 1.0;"/><text fill="#000000" font-family="sans-serif" font-size="13" lengthAdjust="spacingAndGlyphs" textLength="160" x="1093" y="462.02">request quotation button</text><!--MD5=[74ac9f699a32953ef55e188535800bde]
link SERVICES_PAGE to SUPPORT_PAGE--><path d="M1604.59,396.3631 C1683.52,392.9671 1823.89,382.3201 1939,348.9531 C1955.99,344.0271 1958.36,337.9781 1975,331.9531 C1997.76,323.7131 2053.93,309.4191 2099.16,298.3901 " fill="none" id="SERVICES_PAGE-to-SUPPORT_PAGE" style="stroke: #A80036; stroke-width: 1.0;"/><polygon fill="#A80036" points="2104.06,297.1971,2094.3681,295.4456,2099.2026,298.3829,2096.2654,303.2174,2104.06,297.1971" style="stroke: #A80036; stroke-width: 1.0;"/><text fill="#000000" font-family="sans-serif" font-size="13" lengthAdjust="spacingAndGlyphs" textLength="144" x="1976" y="345.02">navbar support button</text><!--MD5=[1df2c45cb3df777544b3d7ddd84fc833]
link SUPPORT_PAGE to SERVICES_PAGE--><path d="M2158.17,302.0701 C2152.39,317.5041 2141.91,338.3391 2125,348.9531 C2082.22,375.8081 1753.43,390.5441 1609.79,395.7571 " fill="none" id="SUPPORT_PAGE-to-SERVICES_PAGE" style="stroke: #A80036; stroke-width: 1.0;"/><polygon fill="#A80036" points="1604.76,395.9381,1613.9023,399.6011,1609.7566,395.7524,1613.6052,391.6066,1604.76,395.9381" style="stroke: #A80036; stroke-width: 1.0;"/><text fill="#000000" font-family="sans-serif" font-size="13" lengthAdjust="spacingAndGlyphs" textLength="148" x="2143" y="345.02">navbar services button</text><!--MD5=[e22f14cccf4ca99aec610e0675b8f763]
link TEST_INIT to HOME_PAGE--><path d="M3401.27,53.8581 C3257.03,72.1261 2750.76,136.2461 2584.99,157.2421 " fill="none" id="TEST_INIT-to-HOME_PAGE" style="stroke: #A80036; stroke-width: 1.0;"/><polygon fill="#A80036" points="2579.71,157.9111,2589.1415,160.7479,2584.6703,157.2825,2588.1357,152.8114,2579.71,157.9111" style="stroke: #A80036; stroke-width: 1.0;"/><!--MD5=[c947a84df86f2d69d0bc0fdf51d02401]
@startuml
hide empty description
title State diagram

state "ABOUT PAGE" as ABOUT_PAGE
state "DOCUMENTATIONS PAGE" as DOCUMENTATIONS_PAGE
state "HOME PAGE" as HOME_PAGE
state "IBELLO PAGE" as IBELLO_PAGE
state "INTEREST PAGE" as INTEREST_PAGE
state "ORDER PAGE WHITOUT PRODUCT" as ORDER_PAGE_WHITOUT_PRODUCT
state "ORDER PAGE WITH 1 HUNTER" as ORDER_PAGE_WITH_1_HUNTER
state "ORDER PAGE WITH 1 MASTER HUNTER" as ORDER_PAGE_WITH_1_MASTER_HUNTER
state "ORDER PAGE WITH 1 OUTPOST" as ORDER_PAGE_WITH_1_OUTPOST
state "ORDER PAGE WITH 1 SENTINEL" as ORDER_PAGE_WITH_1_SENTINEL
state "PRICING PAGE" as PRICING_PAGE
state "QUOTATION PAGE WITH AUTOMATED TESTS" as QUOTATION_PAGE_WITH_AUTOMATED_TESTS
state "QUOTATION PAGE WITH CONSULTANCY" as QUOTATION_PAGE_WITH_CONSULTANCY
state "QUOTATION PAGE WITH DEV AND TEST TRAINING" as QUOTATION_PAGE_WITH_DEV_AND_TEST_TRAINING
state "QUOTATION PAGE WITH ONLINE AUTOMATED TEST" as QUOTATION_PAGE_WITH_ONLINE_AUTOMATED_TEST
state "QUOTATION PAGE WITH TEST FRAMEWORK" as QUOTATION_PAGE_WITH_TEST_FRAMEWORK
state "QUOTATION PAGE WITHOUT SERVICE" as QUOTATION_PAGE_WITHOUT_SERVICE
state "SERVICES PAGE" as SERVICES_PAGE
state "SUPPORT PAGE" as SUPPORT_PAGE
state "TEST INIT" as TEST_INIT

ABOUT_PAGE - -> HOME_PAGE : logo button
ABOUT_PAGE - -> IBELLO_PAGE : navbar product button
ABOUT_PAGE - -> SERVICES_PAGE : navbar services button
ABOUT_PAGE - -> SUPPORT_PAGE : navbar support button
DOCUMENTATIONS_PAGE - -> HOME_PAGE : logo button
HOME_PAGE - -> ABOUT_PAGE : navbar, details button
HOME_PAGE - -> DOCUMENTATIONS_PAGE : documentations button
HOME_PAGE - -> IBELLO_PAGE : our product from header
HOME_PAGE - -> IBELLO_PAGE : navbar, learn more button
HOME_PAGE - -> INTEREST_PAGE : try it button
HOME_PAGE - -> PRICING_PAGE : order details button
HOME_PAGE - -> SERVICES_PAGE : navbar, work with us button
HOME_PAGE - -> SERVICES_PAGE : our services from header
HOME_PAGE - -> SUPPORT_PAGE : more options button
IBELLO_PAGE - -> ABOUT_PAGE : navbar about button
IBELLO_PAGE - -> HOME_PAGE : logo button
IBELLO_PAGE - -> INTEREST_PAGE : download button
IBELLO_PAGE - -> ORDER_PAGE_WHITOUT_PRODUCT : order now button
IBELLO_PAGE - -> ORDER_PAGE_WITH_1_HUNTER : order hunter button
IBELLO_PAGE - -> ORDER_PAGE_WITH_1_MASTER_HUNTER : order master hunter button
IBELLO_PAGE - -> ORDER_PAGE_WITH_1_OUTPOST : order outpost button
IBELLO_PAGE - -> ORDER_PAGE_WITH_1_SENTINEL : order sentinel button
IBELLO_PAGE - -> SERVICES_PAGE : navbar services button
IBELLO_PAGE - -> SUPPORT_PAGE : navbar support button
INTEREST_PAGE - -> HOME_PAGE : logo button
PRICING_PAGE - -> HOME_PAGE : logo button
SERVICES_PAGE - -> ABOUT_PAGE : navbar about button
SERVICES_PAGE - -> HOME_PAGE : logo button
SERVICES_PAGE - -> IBELLO_PAGE : navbar product button
SERVICES_PAGE - -> QUOTATION_PAGE_WITH_AUTOMATED_TESTS : request quotation for automated tests
SERVICES_PAGE - -> QUOTATION_PAGE_WITH_CONSULTANCY : request quotation for consultancy
SERVICES_PAGE - -> QUOTATION_PAGE_WITH_DEV_AND_TEST_TRAINING : request quotation for dev and test training
SERVICES_PAGE - -> QUOTATION_PAGE_WITH_ONLINE_AUTOMATED_TEST : request quotation for online automated test
SERVICES_PAGE - -> QUOTATION_PAGE_WITH_TEST_FRAMEWORK : request quotation for test framework
SERVICES_PAGE - -> QUOTATION_PAGE_WITHOUT_SERVICE : request quotation button
SERVICES_PAGE - -> SUPPORT_PAGE : navbar support button
SUPPORT_PAGE - -> ABOUT_PAGE : navbar about button
SUPPORT_PAGE - -> HOME_PAGE : logo button
SUPPORT_PAGE - -> IBELLO_PAGE : navbar product button
SUPPORT_PAGE - -> SERVICES_PAGE : navbar services button
TEST_INIT - -> HOME_PAGE
@enduml

PlantUML version 1.2020.17beta5(Unknown compile time)
(GPL source distribution)
Java Runtime: Java(TM) SE Runtime Environment
JVM: Java HotSpot(TM) 64-Bit Server VM
Default Encoding: UTF-8
Language: en
Country: US
--></g></svg>